<svg width="512" height="512" viewBox="0 0 512 512" fill="none" xmlns="http://www.w3.org/2000/svg">
<rect width="512" height="512" rx="64" fill="#1D192B"/>
<path d="M256 70L105 137.455V238.636C105 332.23 169.427 419.752 256 441C342.573 419.752 407 332.23 407 238.636V137.455L256 70Z" fill="#65558F"/>
<path d="M274.417 160.917H198.75C188.346 160.917 179.928 169.429 179.928 179.833L179.833 331.167C179.833 341.571 188.251 350.083 198.655 350.083H312.25C322.654 350.083 331.167 341.571 331.167 331.167V217.667L274.417 160.917ZM283.875 255.5H246.042V264.958H274.417C279.619 264.958 283.875 269.215 283.875 274.417V302.792C283.875 307.994 279.619 312.25 274.417 312.25H264.958V321.708H246.042V312.25H227.125V293.333H264.958V283.875H236.583C231.381 283.875 227.125 279.619 227.125 274.417V246.042C227.125 240.84 231.381 236.583 236.583 236.583H246.042V227.125H264.958V236.583H283.875V255.5ZM264.958 217.667V175.104L307.521 217.667H264.958Z" fill="#D0BCFF"/>
</svg>
